# xmcd CD database file
#
# Track frame offsets:
#	150
#	19590
#	43267
#	63740
#	87560
#	109302
#	130187
#	156265
#	176140
#	199535
#	221265
#	244617
#	268047
#	292347
#	323505
#
# Disc length: 4771 seconds
#
# Revision: 0
# Processed by: cddbd v1.5.1PL0 Copyright (c) Steve Scherf et al.
# Submitted via: CDex 1.51
#
DISCID=e212a10f
DTITLE=Paris Match - 5th Anniversary
DYEAR=2005
DGENRE=JPop
TTITLE0=恋の兆し
TTITLE1=Summer Breeze [with New Cool Collective]
TTITLE2=太陽の接吻 [with New Cool Collective]
TTITLE3=Saturday [with New Cool Collective]
TTITLE4=（They Long To Be Close To You） [with New Cool Collective]
TTITLE5=（I'm Still） [with New Cool Collective]
TTITLE6=Asagao
TTITLE7=Into The Beautiful Flame
TTITLE8=Desert Moon
TTITLE9=風のうまれる場所
TTITLE10=Angel
TTITLE11=FM
TTITLE12=Cream
TTITLE13=Oceanside Liner
TTITLE14=Data
EXTD=YEAR: 2005
EXTT0=
EXTT1=
EXTT2=
EXTT3=
EXTT4=
EXTT5=
EXTT6=
EXTT7=
EXTT8=
EXTT9=
EXTT10=
EXTT11=
EXTT12=
EXTT13=
EXTT14=
PLAYORDER=
